<svg xmlns="http://www.w3.org/2000/svg" xmlns:xlink="http://www.w3.org/1999/xlink" width="135" zoomAndPan="magnify" viewBox="0 0 101.25 45.749999" height="61" preserveAspectRatio="xMidYMid meet" version="1.0"><defs><g/><clipPath id="a75320918e"><path d="M 6 14.886719 L 13 14.886719 L 13 25 L 6 25 Z M 6 14.886719 " clip-rule="nonzero"/></clipPath><clipPath id="9a233f55cc"><path d="M 6 24 L 13 24 L 13 34.988281 L 6 34.988281 Z M 6 24 " clip-rule="nonzero"/></clipPath><clipPath id="8cdc43ebb7"><path d="M 9 24 L 18.613281 24 L 18.613281 32 L 9 32 Z M 9 24 " clip-rule="nonzero"/></clipPath><clipPath id="0d4adc6623"><path d="M 9 18 L 18.613281 18 L 18.613281 25 L 9 25 Z M 9 18 " clip-rule="nonzero"/></clipPath></defs><g clip-path="url(#a75320918e)"><path fill="#f4f1eb" d="M 9.335938 14.886719 C 7.824219 14.886719 6.601562 16.113281 6.601562 17.621094 C 6.601562 19.132812 9.335938 24.796875 9.335938 24.796875 C 9.335938 24.796875 12.070312 19.132812 12.070312 17.621094 C 12.070312 16.113281 10.84375 14.886719 9.335938 14.886719 Z M 9.335938 14.886719 " fill-opacity="1" fill-rule="nonzero"/></g><path fill="#f4f1eb" d="M 4.488281 18.839844 C 3.179688 18.085938 1.507812 18.535156 0.753906 19.84375 C 0 21.148438 0.445312 22.820312 1.753906 23.578125 C 3.0625 24.332031 9.335938 24.796875 9.335938 24.796875 C 9.335938 24.796875 5.796875 19.597656 4.488281 18.839844 Z M 4.488281 18.839844 " fill-opacity="1" fill-rule="nonzero"/><path fill="#f4f1eb" d="M 0.753906 29.75 C 1.507812 31.058594 3.179688 31.507812 4.488281 30.753906 C 5.796875 29.996094 9.335938 24.796875 9.335938 24.796875 C 9.335938 24.796875 3.0625 25.261719 1.753906 26.015625 C 0.445312 26.773438 0 28.445312 0.753906 29.75 Z M 0.753906 29.75 " fill-opacity="1" fill-rule="nonzero"/><g clip-path="url(#9a233f55cc)"><path fill="#f4f1eb" d="M 9.335938 34.707031 C 10.84375 34.707031 12.070312 33.480469 12.070312 31.972656 C 12.070312 30.460938 9.335938 24.796875 9.335938 24.796875 C 9.335938 24.796875 6.601562 30.460938 6.601562 31.972656 C 6.601562 33.480469 7.824219 34.707031 9.335938 34.707031 Z M 9.335938 34.707031 " fill-opacity="1" fill-rule="nonzero"/></g><g clip-path="url(#8cdc43ebb7)"><path fill="#f4f1eb" d="M 16.914062 26.015625 C 15.609375 25.261719 9.335938 24.796875 9.335938 24.796875 C 9.335938 24.796875 12.875 29.996094 14.183594 30.753906 C 15.488281 31.507812 17.160156 31.058594 17.917969 29.75 C 18.671875 28.445312 18.222656 26.773438 16.914062 26.015625 Z M 16.914062 26.015625 " fill-opacity="1" fill-rule="nonzero"/></g><g clip-path="url(#0d4adc6623)"><path fill="#f4f1eb" d="M 17.917969 19.84375 C 17.160156 18.535156 15.488281 18.085938 14.183594 18.839844 C 12.875 19.597656 9.335938 24.796875 9.335938 24.796875 C 9.335938 24.796875 15.609375 24.332031 16.914062 23.578125 C 18.222656 22.820312 18.671875 21.148438 17.917969 19.84375 Z M 17.917969 19.84375 " fill-opacity="1" fill-rule="nonzero"/></g><g fill="#f4f1eb" fill-opacity="1"><g transform="translate(18.673257, 31.5064)"><g><path d="M 8.875 -14.1875 C 10.226562 -14.1875 11.367188 -13.878906 12.296875 -13.265625 C 13.234375 -12.648438 13.941406 -11.8125 14.421875 -10.75 C 14.910156 -9.6875 15.15625 -8.476562 15.15625 -7.125 C 15.15625 -5.414062 14.84375 -4.007812 14.21875 -2.90625 C 13.59375 -1.800781 12.765625 -0.976562 11.734375 -0.4375 C 10.710938 0.09375 9.601562 0.359375 8.40625 0.359375 C 7.832031 0.359375 7.222656 0.273438 6.578125 0.109375 C 5.929688 -0.046875 5.4375 -0.265625 5.09375 -0.546875 L 4.171875 -1.90625 L 4.171875 5.109375 L 1.9375 5.109375 L 1.9375 -13.828125 L 4.171875 -13.828125 L 4.171875 -11.609375 L 5.21875 -13.09375 C 5.613281 -13.425781 6.144531 -13.691406 6.8125 -13.890625 C 7.488281 -14.085938 8.175781 -14.1875 8.875 -14.1875 Z M 8.40625 -1.359375 C 9.625 -1.359375 10.644531 -1.820312 11.46875 -2.75 C 12.289062 -3.6875 12.703125 -5.054688 12.703125 -6.859375 C 12.703125 -7.898438 12.546875 -8.847656 12.234375 -9.703125 C 11.921875 -10.554688 11.457031 -11.226562 10.84375 -11.71875 C 10.226562 -12.21875 9.457031 -12.46875 8.53125 -12.46875 C 7.769531 -12.46875 7.054688 -12.289062 6.390625 -11.9375 C 5.734375 -11.582031 5.195312 -11.007812 4.78125 -10.21875 C 4.375 -9.425781 4.171875 -8.367188 4.171875 -7.046875 L 4.171875 -6.28125 C 4.171875 -5.101562 4.382812 -4.148438 4.8125 -3.421875 C 5.238281 -2.691406 5.773438 -2.164062 6.421875 -1.84375 C 7.078125 -1.519531 7.738281 -1.359375 8.40625 -1.359375 Z M 8.40625 -1.359375 "/></g></g></g><g fill="#f4f1eb" fill-opacity="1"><g transform="translate(33.38201, 31.5064)"><g><path d="M 13.28125 -7.3125 C 13.28125 -7.207031 13.28125 -7.0625 13.28125 -6.875 C 13.28125 -6.695312 13.265625 -6.484375 13.234375 -6.234375 L 3.203125 -6.234375 C 3.273438 -5.015625 3.5 -4.046875 3.875 -3.328125 C 4.25 -2.617188 4.722656 -2.113281 5.296875 -1.8125 C 5.867188 -1.507812 6.492188 -1.359375 7.171875 -1.359375 C 8.078125 -1.359375 8.859375 -1.625 9.515625 -2.15625 C 10.179688 -2.695312 10.59375 -3.46875 10.75 -4.46875 L 13.09375 -4.46875 C 12.925781 -3.351562 12.539062 -2.4375 11.9375 -1.71875 C 11.332031 -1.007812 10.609375 -0.484375 9.765625 -0.140625 C 8.921875 0.191406 8.023438 0.359375 7.078125 0.359375 C 5.867188 0.359375 4.789062 0.0976562 3.84375 -0.421875 C 2.894531 -0.953125 2.144531 -1.753906 1.59375 -2.828125 C 1.050781 -3.898438 0.78125 -5.242188 0.78125 -6.859375 C 0.78125 -8.359375 1.066406 -9.65625 1.640625 -10.75 C 2.210938 -11.84375 2.992188 -12.6875 3.984375 -13.28125 C 4.984375 -13.882812 6.109375 -14.1875 7.359375 -14.1875 C 8.628906 -14.1875 9.703125 -13.894531 10.578125 -13.3125 C 11.460938 -12.738281 12.132812 -11.929688 12.59375 -10.890625 C 13.050781 -9.859375 13.28125 -8.664062 13.28125 -7.3125 Z M 7.3125 -12.46875 C 6.207031 -12.46875 5.285156 -12.082031 4.546875 -11.3125 C 3.804688 -10.550781 3.367188 -9.429688 3.234375 -7.953125 L 11.015625 -7.953125 C 10.910156 -9.398438 10.546875 -10.515625 9.921875 -11.296875 C 9.304688 -12.078125 8.4375 -12.46875 7.3125 -12.46875 Z M 7.3125 -12.46875 "/></g></g></g><g fill="#f4f1eb" fill-opacity="1"><g transform="translate(46.473789, 31.5064)"><g><path d="M 13.5625 -10.15625 C 13.601562 -9.800781 13.625 -9.453125 13.625 -9.109375 C 13.625 -8.773438 13.625 -8.332031 13.625 -7.78125 L 13.625 0 L 11.375 0 L 11.375 -7.625 C 11.375 -7.96875 11.375 -8.296875 11.375 -8.609375 C 11.375 -8.921875 11.359375 -9.253906 11.328125 -9.609375 C 11.253906 -10.421875 10.976562 -11.09375 10.5 -11.625 C 10.019531 -12.15625 9.242188 -12.421875 8.171875 -12.421875 C 7.453125 -12.421875 6.785156 -12.21875 6.171875 -11.8125 C 5.566406 -11.414062 5.082031 -10.753906 4.71875 -9.828125 C 4.351562 -8.910156 4.171875 -7.660156 4.171875 -6.078125 L 4.171875 0 L 1.9375 0 L 1.9375 -13.828125 L 4.171875 -13.828125 L 4.171875 -11.453125 L 5.03125 -13.046875 C 5.625 -13.492188 6.195312 -13.796875 6.75 -13.953125 C 7.3125 -14.109375 7.941406 -14.1875 8.640625 -14.1875 C 10.148438 -14.1875 11.320312 -13.816406 12.15625 -13.078125 C 12.988281 -12.347656 13.457031 -11.375 13.5625 -10.15625 Z M 13.5625 -10.15625 "/></g></g></g><g fill="#f4f1eb" fill-opacity="1"><g transform="translate(60.713103, 31.5064)"><g/></g></g><g fill="#f4f1eb" fill-opacity="1"><g transform="translate(65.122158, 31.5064)"><g><path d="M 6.1875 -16.484375 C 6.007812 -16.003906 5.878906 -15.535156 5.796875 -15.078125 L 5.5625 -13.71875 L 8.40625 -13.71875 L 8.09375 -12 L 5.25 -12 L 3.15625 0 L 0.90625 0 L 3.03125 -12 L 1.78125 -12 L 2.09375 -13.71875 L 3.3125 -13.71875 L 3.515625 -14.875 C 3.660156 -15.601562 3.789062 -16.160156 3.90625 -16.546875 C 4.226562 -17.554688 4.726562 -18.328125 5.40625 -18.859375 C 6.082031 -19.398438 6.890625 -19.671875 7.828125 -19.671875 C 8.535156 -19.671875 9.15625 -19.628906 9.6875 -19.546875 L 9.34375 -17.6875 C 9.007812 -17.757812 8.671875 -17.796875 8.328125 -17.796875 C 7.210938 -17.796875 6.5 -17.359375 6.1875 -16.484375 Z M 6.1875 -16.484375 "/></g></g></g><g fill="#f4f1eb" fill-opacity="1"><g transform="translate(71.015776, 31.5064)"><g><path d="M 5.109375 -18.375 C 5.472656 -18.375 5.769531 -18.257812 6 -18.03125 C 6.226562 -17.800781 6.34375 -17.515625 6.34375 -17.171875 C 6.34375 -16.703125 6.175781 -16.304688 5.84375 -15.984375 C 5.507812 -15.660156 5.109375 -15.5 4.640625 -15.5 C 4.273438 -15.5 3.976562 -15.609375 3.75 -15.828125 C 3.53125 -16.054688 3.421875 -16.347656 3.421875 -16.703125 C 3.421875 -17.171875 3.582031 -17.566406 3.90625 -17.890625 C 4.238281 -18.210938 4.640625 -18.375 5.109375 -18.375 Z M 2.96875 0 L 0.734375 0 L 3.1875 -13.828125 L 5.421875 -13.828125 Z M 2.96875 0 "/></g></g></g></svg>